<?xml version="1.0" encoding="UTF-8"?>
<svg width="48px" height="49px" viewBox="0 0 48 49" version="1.1" xmlns="http://www.w3.org/2000/svg" xmlns:xlink="http://www.w3.org/1999/xlink">
    <title>Micro-Illustrations/Products-and-Services/Loan@2x</title>
    <defs>
        <linearGradient x1="38.8928378%" y1="36.1790117%" x2="66.8104573%" y2="89.9367348%" id="linearGradient-1">
            <stop stop-color="#002149" stop-opacity="0.5" offset="0%"></stop>
            <stop stop-color="#002149" stop-opacity="0" offset="100%"></stop>
        </linearGradient>
        <linearGradient x1="29.1073664%" y1="22.2970753%" x2="67.3812041%" y2="73.0496221%" id="linearGradient-2">
            <stop stop-color="#FFFFFF" stop-opacity="0.5" offset="0%"></stop>
            <stop stop-color="#EAF5F6" stop-opacity="0.1" offset="100%"></stop>
        </linearGradient>
        <linearGradient x1="0%" y1="49.997673%" x2="100%" y2="49.997673%" id="linearGradient-3">
            <stop stop-color="#003267" stop-opacity="0" offset="0%"></stop>
            <stop stop-color="#003267" stop-opacity="0.6" offset="100%"></stop>
        </linearGradient>
    </defs>
    <g id="Visual" stroke="none" stroke-width="1" fill="none" fill-rule="evenodd">
        <g id="Micro-Illustrations/Products-and-Services/Loan">
            <g id="activate_virtual_card" transform="translate(5.200000, 4.720000)" fill-rule="nonzero">
                <path d="M42.8,13.7487787 C42.7828944,10.3722745 40.0558629,7.63501408 36.6767765,7.60258869 C33.2976902,7.57016329 30.5185496,10.254587 30.4365498,13.6301402 L26.9286966,13.6301402 L26.9286966,6.90665904 L26.9286966,6.90665904 C26.9294528,6.34969199 26.7086819,5.81525052 26.3149777,5.42097021 C25.9212734,5.0266899 25.3869057,4.80488786 24.8294939,4.80438479 L7.26648139,4.80438479 L7.26648139,4.80438479 L7.26648139,4.80438479 C6.70890355,4.80589235 6.17479047,5.02878987 5.78177104,5.42398814 C5.38875161,5.8191864 5.16905957,6.35427298 5.17106438,6.91140458 L5.17106438,38.5242944 L5.17106438,38.5242944 L5.17106438,41.2634202 C5.17106438,41.8196321 5.39227379,42.3530493 5.78597798,42.7462615 C6.17968218,43.1394737 6.71362505,43.36 7.27028086,43.36 L24.8332934,43.36 C25.9922801,43.36 26.9319716,42.4214826 26.932496,41.2634202 L26.932496,34.021726 L37.1910431,34.021726 C38.2402355,34.021726 39.090774,33.1718657 39.090774,32.12351 L39.090774,19.4140045 C41.3449996,18.4310549 42.8015979,16.2063424 42.8,13.7487787 L42.8,13.7487787 Z" id="Path" fill="url(#linearGradient-1)"></path>
                <path d="M2.09921325,0.00379643207 L19.6622258,0.00379643207 C20.2197248,0.00455107772 20.7540901,0.226564125 21.1477671,0.62099513 C21.5414441,1.01542613 21.7621847,1.54996528 21.7614304,2.1070198 L21.7614304,2.1070198 L21.7614304,36.46473 C21.7603811,37.6227294 20.8211493,38.5612122 19.6622258,38.562259 L2.09921325,38.562259 C1.54239283,38.562259 1.00830591,38.3416026 0.614574371,37.948185 C0.220842835,37.5547675 -0.000241562044,37.0211064 0,36.46473 L0,36.46473 L0,2.1070198 C-0.00175566753,1.54996459 0.218017804,1.01502415 0.610982739,0.619880677 C1.00394767,0.224737209 1.537914,0.00175924961 2.09541379,0 L2.09541379,0 L2.09921325,0.00379643207 Z" id="Path" fill="#0065AA"></path>
                <rect id="Rectangle" fill="#00A7EC" x="1.05640633e-05" y="4.84424732" width="21.7614179" height="28.881357"></rect>
                <polygon id="Path" fill="url(#linearGradient-2)" opacity="0.5" points="1.05640633e-05 4.84424732 1.05640633e-05 33.7256043 11.1229352 33.7256043 21.7614284 14.0790683 21.7614284 4.84424732"></polygon>
                <rect id="Rectangle" fill="#003267" x="10.3250482" y="7.0670583" width="1.13983856" height="23.9213185" rx="0.569919281"></rect>
                <path d="M10.3240983,8.83050076 L32.009527,8.83050076 C32.5157115,8.83024905 33.0012364,9.03105814 33.3591629,9.38869926 C33.7170895,9.74634038 33.9180588,10.2314781 33.9178069,10.737259 L33.9178069,27.317227 C33.9180588,27.8230078 33.7170895,28.3081456 33.3591629,28.6657867 C33.0012364,29.0234278 32.5157115,29.2242369 32.009527,29.2239852 L10.3240983,29.2239852 L10.3240983,8.83050076 Z" id="Path" fill="#0065AA"></path>
                <path d="M32.0180758,29.223985 C33.0672682,29.223985 33.9178067,28.3741247 33.9178067,27.3257689 L33.9178067,27.3257689 L33.9178067,10.728717 C33.9178067,9.68036126 33.0672682,8.830501 32.0180758,8.830501 L22.329448,8.830501 L11.4743854,29.223985 L32.0180758,29.223985 Z" id="Path" fill="url(#linearGradient-3)"></path>
                <rect id="Rectangle" fill="#003267" opacity="0.6" x="10.3240983" y="11.7319242" width="23.5937084" height="3.31618341"></rect>
                <path d="M10.3240983,21.4318081 L28.690697,21.4318081 C28.8281412,21.4318081 28.9395618,21.5431398 28.9395618,21.6804744 L28.9395618,24.1671375 C28.9395618,24.3044721 28.8281412,24.4158038 28.690697,24.4158038 L10.3240983,24.4158038 L10.3240983,21.4318081 Z" id="Path" fill="#FFFFFF"></path>
                <rect id="Rectangle" fill="#003267" opacity="0.3" x="10.3240983" y="8.830501" width="1.14078843" height="20.3944331"></rect>
                <path d="M37.6327306,8.95293593 C37.6327306,12.365334 34.8642277,15.1316291 31.4491063,15.1316291 C28.033985,15.1316291 25.2654821,12.365334 25.2654821,8.95293593 C25.2654821,5.5405379 28.033985,2.77424266 31.4491063,2.77424266 L31.4491063,2.77424266 C33.0891827,2.77399095 34.6621581,3.42487768 35.8218672,4.58366201 C36.9815763,5.74244634 37.6329825,7.31416743 37.6327306,8.95293593 L37.6327306,8.95293593" id="Path" fill="#59A96E"></path>
                <path d="M37.6327306,8.95293593 C37.6327306,12.365334 34.8642277,15.1316291 31.4491063,15.1316291 C28.033985,15.1316291 25.2654821,12.365334 25.2654821,8.95293593 C25.2654821,5.5405379 28.033985,2.77424266 31.4491063,2.77424266 L31.4491063,2.77424266 C33.0891827,2.77399095 34.6621581,3.42487768 35.8218672,4.58366201 C36.9815763,5.74244634 37.6329825,7.31416743 37.6327306,8.95293593 L37.6327306,8.95293593" id="Path" fill="#59A96E"></path>
                <path d="M30.1762866,11.721484 C30.0303818,11.7205013 29.8906339,11.6626033 29.7868418,11.5601357 L27.8776122,9.66191962 C27.6713829,9.44555154 27.6755471,9.10430567 27.886995,8.8930264 C28.0984429,8.68174712 28.4399611,8.67758621 28.6565019,8.88365104 L30.1762866,10.3927328 L34.2417108,6.34004156 C34.4515493,6.11988685 34.8002701,6.11138824 35.0206005,6.3210594 C35.2409309,6.53073055 35.2494363,6.87917326 35.0395978,7.09932797 L35.0206005,7.11831013 L30.5657315,11.5601357 C30.4620535,11.6627748 30.3222323,11.7207032 30.1762866,11.721484 L30.1762866,11.721484 Z" id="Path" fill="#FFFFFF"></path>
            </g>
            <rect id="Rectangle" x="0" y="0" width="48" height="48"></rect>
        </g>
    </g>
</svg>