<?xml version="1.0" encoding="UTF-8"?>
<svg width="48px" height="48px" viewBox="0 0 48 48" version="1.1" xmlns="http://www.w3.org/2000/svg" xmlns:xlink="http://www.w3.org/1999/xlink">
    <title>Micro-Illustrations/Products-and-Services/Loan</title>
    <defs>
        <linearGradient x1="10.6658554%" y1="-22.201117%" x2="162.647775%" y2="256.52691%" id="linearGradient-1">
            <stop stop-color="#192647" offset="0%"></stop>
            <stop stop-color="#192647" stop-opacity="0.5" offset="0%"></stop>
            <stop stop-color="#192647" stop-opacity="0" offset="100%"></stop>
        </linearGradient>
        <linearGradient x1="9.60347023%" y1="-7.98632128%" x2="59.1116313%" y2="86.753107%" id="linearGradient-2">
            <stop stop-color="#192647" stop-opacity="0.5" offset="0%"></stop>
            <stop stop-color="#192647" stop-opacity="0" offset="100%"></stop>
        </linearGradient>
        <linearGradient x1="103.828704%" y1="58.7510751%" x2="-3.31997282%" y2="50.512348%" id="linearGradient-3">
            <stop stop-color="#028484" stop-opacity="0.5" offset="0%"></stop>
            <stop stop-color="#028484" stop-opacity="0" offset="100%"></stop>
        </linearGradient>
        <linearGradient x1="143.863175%" y1="-977.674019%" x2="51.349358%" y2="-977.674019%" id="linearGradient-4">
            <stop stop-color="#028484" stop-opacity="0.5" offset="0%"></stop>
            <stop stop-color="#028484" stop-opacity="0" offset="100%"></stop>
        </linearGradient>
        <linearGradient x1="31.0806392%" y1="16.3559228%" x2="68.9294484%" y2="64.8848978%" id="linearGradient-5">
            <stop stop-color="#FFFFFF" stop-opacity="0.4" offset="0%"></stop>
            <stop stop-color="#FFFFFF" stop-opacity="0.1" offset="100%"></stop>
        </linearGradient>
    </defs>
    <g id="Visual" stroke="none" stroke-width="1" fill="none" fill-rule="evenodd">
        <g id="Micro-Illustrations/Products-and-Services/Loan">
            <g id="funds" transform="translate(5.680000, 3.360000)" fill-rule="nonzero">
                <path d="M5.68032942,11.7779493 L5.68032942,12.3529977 C5.67951521,12.3914222 5.68143602,12.4298558 5.68607726,12.4680074 L5.68607726,12.5101776 C5.68474984,12.5489928 5.68731729,12.5878432 5.69374106,12.6261457 L5.69374106,12.6654407 L5.70427878,12.7929097 L5.70427878,12.8312463 C5.70427878,12.8762917 5.71290055,12.9213372 5.71673245,12.9682995 L5.71673245,13.0037608 C5.71905593,13.0519379 5.72417374,13.0999394 5.73206004,13.1475229 L5.73206004,13.184901 C5.73780788,13.2347386 5.74355573,13.2807424 5.75026155,13.3344136 L5.75026155,13.3689165 C5.75404783,13.4220109 5.7610862,13.4748228 5.77133699,13.5270548 L5.77133699,13.5586825 C5.77995876,13.6133121 5.78762255,13.6679417 5.7972023,13.7235297 L5.7972023,13.7541989 C5.80582407,13.8107454 5.81540381,13.8692086 5.82594153,13.925755 L5.82594153,13.953549 C5.83647925,14.0120123 5.84797494,14.0685587 5.85947064,14.1327725 L5.85947064,14.1586496 C5.87096633,14.2180713 5.88437797,14.2813266 5.89683164,14.3426651 C5.89588495,14.3507768 5.89792866,14.3589554 5.90257949,14.3656671 C5.91503315,14.4289224 5.9284448,14.4931361 5.94377239,14.5573498 L5.94377239,14.5774765 C5.95909998,14.6426487 5.97538554,14.7087793 5.99167111,14.7749098 L5.99167111,14.7912029 C6.00891465,14.8582918 6.02615819,14.9263392 6.04531768,14.995345 L6.04531768,15.0078044 C6.06351919,15.0777686 6.08363666,15.1477329 6.10375412,15.2186555 L6.10375412,15.2272812 C6.12482956,15.2991623 6.14686297,15.3710433 6.16889638,15.4438828 L6.16889638,15.4438828 C6.19188777,15.5176806 6.21487915,15.5905201 6.24074446,15.6652764 L6.24074446,15.6652764 C7.26002927,18.6957814 9.87242556,22.1019846 16.491071,21.8585475 C16.5033211,21.8582991 16.5152612,21.854649 16.525558,21.8480049 C16.6041119,21.8240446 16.6213555,21.7627061 16.6261454,21.6687815 C16.5907003,11.085016 7.73039472,11.045721 5.93515062,11.1463545 C5.77629485,11.1544814 5.64346633,11.2699687 5.61327121,11.4262114 C5.60844464,11.4380944 5.60584672,11.4507651 5.60560741,11.4635895 L5.60560741,11.4865915 L5.60560741,11.4865915 L5.60560741,11.7741157 L5.68032942,11.7779493 Z" id="Path" fill="url(#linearGradient-1)"></path>
                <path d="M30.6911261,18.0383094 C29.8335872,18.0383246 28.9786758,18.133144 28.1419561,18.3210415 C30.5081529,16.2125308 32.3369261,12.8580819 32.452841,7.57722088 L32.452841,6.95521021 C32.452841,6.69356319 32.452841,6.42808252 32.4403874,6.15493454 C32.4388201,6.10389688 32.4137009,6.05646692 32.3723712,6.02650707 C32.3014811,5.93066567 32.1759864,5.8779529 31.9843915,5.8779529 C16.5025666,6.03225755 16.7707995,19.3724217 16.9240754,21.5777322 C16.9368058,21.7555653 17.0821866,21.8947972 17.2603244,21.8997593 C19.1049505,21.9423303 20.9455396,21.7081129 22.7207787,21.2049092 C22.1264986,21.7660332 21.5922592,22.3875641 21.1267093,23.0594402 L7.85780532,23.0594402 C7.6661247,23.0594395 7.51058864,23.2146182 7.51006059,23.4063861 L7.51006059,26.3832199 C7.5105869,26.5751436 7.66596963,26.7305976 7.85780532,26.7311241 L19.449296,26.7311241 C19.3496882,27.11295 19.270068,27.4997169 19.2107604,27.8898466 L7.86259519,27.8898466 C7.67054108,27.8898466 7.51485047,28.0456087 7.51485047,28.2377509 L7.51485047,31.2184184 C7.51485047,31.4105606 7.67054108,31.5663226 7.86259519,31.5663226 L19.2452475,31.5663226 C19.3101744,31.9566203 19.394905,32.3433609 19.4991107,32.7250451 L7.85780532,32.7250451 C7.66596963,32.7255717 7.5105869,32.8810257 7.51006059,33.0729494 L7.51006059,36.0507416 C7.5105869,36.2426653 7.66596963,36.3981194 7.85780532,36.3986459 L21.2464561,36.3986459 C21.6059004,36.9005012 22.0043779,37.3731893 22.4381763,37.8123065 L22.4803271,37.8554351 L22.5416375,37.9167736 C23.3478186,38.7183516 24.2678004,39.3965439 25.2718647,39.929443 L25.2718647,39.929443 C29.5423904,42.1914925 34.7667207,41.5716472 38.3899556,38.3730355 C42.0131905,35.1744238 43.2781564,30.0654827 41.5662359,25.5446823 C39.8543154,21.023882 35.523261,18.0359668 30.6911261,18.0421431 L30.6911261,18.0383094 Z" id="Path" fill="url(#linearGradient-2)"></path>
                <path d="M19.7529739,30.5226098 L2.17989082,30.5226098 C1.98836579,30.5226098 1.83310407,30.3672769 1.83310407,30.175664 L1.83310407,27.1988302 C1.83310407,27.0070616 1.98821093,26.8514542 2.17989082,26.8509259 L19.7529739,26.8509259 L19.7529739,30.5226098 Z" id="Path" fill="#F8CD51"></path>
                <path d="M19.7529739,25.6922034 L2.17989082,25.6922034 C2.08775103,25.6922034 1.99939898,25.6555191 1.93433624,25.5902467 C1.8692735,25.5249743 1.83284954,25.4364808 1.83310275,25.3442991 L1.83310275,22.3674653 C1.83284954,22.2752836 1.8692735,22.1867902 1.93433624,22.1215178 C1.99939898,22.0562453 2.08775103,22.019561 2.17989082,22.019561 L19.7529739,22.019561 L19.7529739,25.6922034 Z" id="Path" fill="#F8CD51"></path>
                <path d="M19.7529739,20.8608386 L2.17989082,20.8608386 C1.98821093,20.8603103 1.83310407,20.7047028 1.83310407,20.5129343 L1.83310407,17.5351421 C1.83310407,17.3433735 1.98821093,17.1877661 2.17989082,17.1872378 L19.7529739,17.1872378 L19.7529739,20.8608386 Z" id="Path" fill="#F8CD51"></path>
                <path d="M11.0229529,15.7927455 C10.9865498,5.20706312 2.12720222,5.16872656 0.331000152,5.26840161 C0.148664799,5.27844688 0.00515704843,5.42788062 0.00241491989,5.6105554 C-0.0378200065,7.41908257 0.30034497,16.3562929 10.8610552,15.9796362 C10.9970876,15.9719689 11.016247,15.9048799 11.0229529,15.7927455 Z" id="Path" fill="#2DCCCD"></path>
                <path d="M0.00433086877,5.58755347 C-0.0378200065,7.34240945 0.256278146,16.3725859 10.8945843,15.9796362 C10.9345852,15.9765691 10.9648018,15.9420808 10.9626005,15.9020047 C10.9612734,15.8843684 10.953817,15.8677534 10.941525,15.8550424 L0.227538913,5.5003378 C0.202916394,5.47563958 0.169482436,5.46175885 0.134615392,5.46175885 C0.0997483488,5.46175885 0.0663143909,5.47563958 0.0416918719,5.5003378 C0.0191833611,5.52398419 0.00592315353,5.55493887 0.00433086877,5.58755347 L0.00433086877,5.58755347 Z" id="Path" fill="url(#linearGradient-3)"></path>
                <path d="M26.3141408,0 C10.8371058,0.153346236 11.1053387,13.497344 11.2547827,15.6997793 C11.2670043,15.8776339 11.4119656,16.017275 11.5900737,16.0227648 C13.8097005,16.0975211 27.2299644,15.9067967 26.7768425,0.400617041 C26.7778005,0.132261128 26.6341043,0 26.3141408,0 Z" id="Path" fill="#2DCCCD"></path>
                <path d="M11.5919897,16.0218064 C13.8183223,16.0956043 27.2558297,15.9058383 26.7749266,0.344070617 C26.7729511,0.299221305 26.7530867,0.257036276 26.7197782,0.226954825 C26.6864697,0.196873375 26.6424977,0.181406653 26.5977013,0.184015483 C26.5554549,0.186144617 26.5155074,0.203907186 26.4856183,0.23385301 L11.4952343,15.7879534 C11.4687925,15.8143791 11.4539354,15.8502369 11.4539354,15.8876284 C11.4539354,15.9250199 11.4687925,15.9608778 11.4952343,15.9873035 C11.5221355,16.0103381 11.5565904,16.0226247 11.5919897,16.0218064 Z" id="Path" fill="url(#linearGradient-4)"></path>
                <path d="M36.6085342,23.7734586 C36.6085342,30.1930478 31.4087802,35.3981917 24.9921361,35.4018954 C18.589035,35.4018954 13.3594525,30.1833313 13.3594525,23.7725002 C13.3663098,17.3564388 18.5617778,12.1560149 24.9748926,12.1459788 L24.9748926,12.1459788 C31.3953059,12.1428029 36.6032454,17.3462673 36.6085342,23.769625 L36.6085342,23.769625" id="Path" fill="#FFDF8A"></path>
                <path d="M24.9911781,32.9215232 C21.2920078,32.9246213 17.955304,30.6978127 16.5372759,27.2796581 C15.1192479,23.8615035 15.8992208,19.9253161 18.5134222,17.3068989 C21.1276236,14.6884817 25.0611043,13.9036145 28.4793235,15.3183525 C31.8975427,16.7330904 34.1271745,20.0687563 34.1283383,23.769625 C34.1220204,28.817343 30.0365707,32.9093811 24.9911781,32.9215232 L24.9911781,32.9215232 Z" id="Path" fill="#FFCE44"></path>
                <path d="M24.9815984,15.1659362 C29.0900065,15.1609319 32.6296327,18.060556 33.4352212,22.0910604 C34.2408097,26.1215649 32.0879159,30.1600135 28.2935055,31.7360115 C24.4990951,33.3120094 20.1203262,31.9864688 17.835774,28.5702479 C15.5512218,25.1540269 15.997384,20.5989166 18.9013346,17.6913635 C20.5140531,16.0775355 22.7006114,15.1693545 24.9815984,15.1659362 L24.9815984,15.1659362 M24.9815984,14.0800597 L24.9815984,14.0800597 C19.6339401,14.0858728 15.3007007,18.4223868 15.2964768,23.7725002 C15.2964768,29.1146997 19.6543026,33.4639823 24.9911781,33.4639823 C30.3384074,33.4608077 34.6715098,29.1231422 34.6715098,23.7734586 L34.6715098,23.7734586 C34.6704519,18.4200064 30.3325956,14.0805888 24.9815984,14.0800597 L24.9815984,14.0800597 Z" id="Shape" fill="#C49735"></path>
                <path d="M24.9748926,12.1459575 C19.6395968,12.1473893 14.9908843,15.7837385 13.702539,20.9635216 C12.4141936,26.1433046 14.8173388,31.5352422 19.5297659,34.0380723 L30.4410947,13.5069281 C28.7589103,12.6097004 26.8812004,12.1421975 24.9748926,12.1459575 Z" id="Path" fill="url(#linearGradient-5)"></path>
            </g>
            <rect id="Rectangle" x="0" y="0" width="48" height="48"></rect>
        </g>
    </g>
</svg>