<?xml version="1.0" encoding="UTF-8"?>
<svg width="48px" height="48px" viewBox="0 0 48 48" version="1.1" xmlns="http://www.w3.org/2000/svg" xmlns:xlink="http://www.w3.org/1999/xlink">
    <title>Micro-Illustrations/Products-and-Services/Loan</title>
    <defs>
        <linearGradient x1="21.3892004%" y1="17.5788433%" x2="71.3554973%" y2="76.4417742%" id="linearGradient-1">
            <stop stop-color="#192647" stop-opacity="0.5" offset="0%"></stop>
            <stop stop-color="#192647" stop-opacity="0" offset="100%"></stop>
        </linearGradient>
        <linearGradient x1="100.000065%" y1="49.9987931%" x2="-0.00138794745%" y2="49.9987931%" id="linearGradient-2">
            <stop stop-color="#043263" offset="0%"></stop>
            <stop stop-color="#043263" stop-opacity="0" offset="100%"></stop>
        </linearGradient>
    </defs>
    <g id="Visual" stroke="none" stroke-width="1" fill="none" fill-rule="evenodd">
        <g id="Add-Credit-Card">
            <g id="Cuadrados_Blancos">
                <rect id="Rectangle" x="0" y="0" width="48" height="48"></rect>
            </g>
            <g id="Capa_6" transform="translate(4.560000, 12.000000)" fill-rule="nonzero">
                <g id="Group">
                    <path d="M41.3712,17.1416 L41.3712,6.3992 C41.3712,5.08 40.3016,4.0104 38.9824,4.0104 L6.3704,4.0104 C5.0512,4.0104 3.9816,5.08 3.9816,6.3992 L3.9816,24.1592 C3.9816,25.4784 5.0512,26.548 6.3704,26.548 L31.6912,26.548 C32.9224,27.8576 34.6696,28.6768 36.6096,28.6768 C40.3384,28.6768 43.3608,25.6544 43.3608,21.9256 C43.36,20.0568 42.5992,18.3648 41.3712,17.1416 Z" id="Path" fill="url(#linearGradient-1)"></path>
                    <path d="M2.3888,0.0296 L35.0008,0.0296 C36.32,0.0296 37.3896,1.0992 37.3896,2.4184 L37.3896,20.1784 C37.3896,21.4976 36.32,22.5672 35.0008,22.5672 L2.3888,22.5672 C1.0696,22.5672 0,21.4976 0,20.1784 L0,2.4184 C0,1.0984 1.0696,0.0296 2.3888,0.0296 Z" id="Path" fill="#1464A5"></path>
                    <path d="M35.0008,22.5672 C36.32,22.5672 37.3896,21.4976 37.3896,20.1784 L37.3896,2.4184 C37.3896,1.0992 36.32,0.0296 35.0008,0.0296 L24.5912,0.0296 L12.6048,22.5672 L35.0008,22.5672 Z" id="Path" fill="url(#linearGradient-2)"></path>
                    <rect id="Rectangle" fill="#043263" opacity="0.6" x="0" y="3.2352" width="37.3896" height="3.664"></rect>
                    <path d="M5.8096,13.9552 L31.5792,13.9552 C31.7512,13.9552 31.8904,14.0944 31.8904,14.2664 L31.8904,16.9416 C31.8904,17.1136 31.7512,17.2528 31.5792,17.2528 L5.8096,17.2528 C5.6376,17.2528 5.4984,17.1136 5.4984,16.9416 L5.4984,14.2664 C5.4984,14.0944 5.6376,13.9552 5.8096,13.9552 Z" id="Path" fill="#FFFFFF"></path>
                    <g transform="translate(25.840000, 11.120000)" id="Path">
                        <path d="M13.5384,6.8248 C13.5384,10.5536 10.516,13.576 6.7872,13.576 C3.0584,13.576 0.036,10.5536 0.036,6.8248 C0.036,3.096 3.0584,0.0736 6.7872,0.0736 L6.7872,0.0736 C10.516,0.0744 13.5384,3.0968 13.5384,6.8248" fill="#2DCCCD"></path>
                        <path d="M6.788,10.3248 C6.4776,10.3248 6.2256,10.0728 6.2256,9.7624 L6.2256,3.888 C6.2256,3.5776 6.4776,3.3256 6.788,3.3256 C7.0984,3.3256 7.3504,3.5776 7.3504,3.888 L7.3504,9.7624 C7.3504,10.0728 7.0984,10.3248 6.788,10.3248 C6.788,10.3248 6.788,10.3248 6.788,10.3248 Z" fill="#FFFFFF"></path>
                        <path d="M9.7256,7.388 L3.8504,7.388 C3.54,7.388 3.288,7.136 3.288,6.8256 C3.288,6.5152 3.54,6.2632 3.8504,6.2632 L9.7256,6.2632 C10.036,6.2632 10.288,6.5152 10.288,6.8256 C10.288,7.136 10.036,7.388 9.7256,7.388 Z" fill="#FFFFFF"></path>
                    </g>
                </g>
            </g>
        </g>
    </g>
</svg>