<?xml version="1.0" encoding="UTF-8"?>
<svg width="1024px" height="325px" viewBox="0 0 1024 325" version="1.1" xmlns="http://www.w3.org/2000/svg" xmlns:xlink="http://www.w3.org/1999/xlink">
    <!-- Generator: Sketch 51.3 (57544) - http://www.bohemiancoding.com/sketch -->
    <title>02Logo_sinTagline_blanco</title>
    <desc>Created with Sketch.</desc>
    <defs></defs>
    <g id="02Logo_sinTagline_blanco" stroke="none" stroke-width="1" fill="none" fill-rule="evenodd">
        <path d="M733.747453,56.2803121 L647.519829,220.419739 C645.65384,223.975936 640.330813,223.975936 638.464824,220.428753 L552.169592,56.2803121 C551.299698,54.6306696 549.595969,53.6120379 547.738995,53.6120379 L506.038196,53.6120379 C503.212169,53.6120379 501.404774,56.6363824 502.729897,59.128875 L638.582012,313.390164 C640.470537,316.901288 645.505102,316.901288 647.393627,313.390164 L783.241234,59.128875 C784.579879,56.6363824 782.772483,53.6120379 779.946457,53.6120379 L738.164528,53.6120379 C736.312061,53.6120379 734.617346,54.6441912 733.747453,56.2803121" id="Fill-1" fill="#FFFFFF"></path>
        <path d="M782.097884,273.114548 L868.325508,108.975121 C870.191497,105.418925 875.514524,105.418925 877.380513,108.966107 L963.675745,273.114548 C964.545638,274.764191 966.249367,275.782822 968.106342,275.782822 L1009.80714,275.782822 C1012.63317,275.782822 1014.44056,272.758478 1013.11544,270.265985 L877.263325,16.0046965 C875.3748,12.4935722 870.340235,12.4935722 868.45171,16.0046965 L732.590581,270.265985 C731.265458,272.758478 733.072853,275.782822 735.89888,275.782822 L777.680809,275.782822 C779.533276,275.782822 781.227991,274.750669 782.097884,273.114548" id="Fill-3" fill="#FFFFFF"></path>
        <path d="M192.864971,172.499879 C210.853285,163.503468 222.103306,144.005234 222.103306,120.01781 C222.103306,79.1508473 190.246276,51.413416 145.259714,51.413416 L16.0016619,51.413416 C13.2432433,51.413416 10.9986478,53.6444899 10.9986478,56.4029084 L10.9986478,308.829759 C10.9986478,311.588177 13.2432433,313.832773 16.0016619,313.832773 L139.580617,313.832773 C201.437703,313.832773 234.051946,287.213132 234.051946,235.10967 C234.051946,184.227665 192.864971,172.499879 192.864971,172.499879 M59.4061895,89.3597003 L136.055971,89.3597003 C164.311733,89.3597003 178.707793,101.443557 178.707793,123.71373 C178.707793,146.08757 164.370326,158.081282 136.055971,158.081282 L59.4061895,158.081282 C56.6477709,158.081282 54.4166971,155.850208 54.4166971,153.078268 L54.4166971,94.3491927 C54.4166971,91.5907742 56.6477709,89.3597003 59.4061895,89.3597003 M137.097139,275.778315 L59.3611173,275.791837 C56.6026987,275.791837 54.3626105,273.547241 54.3626105,270.788823 L54.3626105,201.084667 C54.3626105,198.330756 56.6026987,196.08616 59.3611173,196.08616 L137.097139,196.08616 C174.141979,196.08616 190.692491,206.59249 190.692491,235.934491 C190.692491,265.276493 174.507064,275.778315 137.097139,275.778315" id="Fill-6" fill="#FFFFFF"></path>
        <path d="M458.792297,174.6985 C476.780611,165.702089 488.030632,146.203856 488.030632,122.216432 C488.030632,81.3494691 456.173602,53.6120379 411.18704,53.6120379 L281.928988,53.6120379 C279.170569,53.6120379 276.925974,55.8431117 276.925974,58.6015303 L276.925974,311.028381 C276.925974,313.786799 279.170569,316.031395 281.928988,316.031395 L405.507943,316.031395 C467.365029,316.031395 499.979272,289.411754 499.979272,237.308292 C499.979272,186.426287 458.792297,174.6985 458.792297,174.6985 M325.333516,91.5583222 L401.983297,91.5583222 C430.239059,91.5583222 444.635119,103.642179 444.635119,125.912352 C444.635119,148.286192 430.297652,160.279904 401.983297,160.279904 L325.333516,160.279904 C322.575097,160.279904 320.335009,158.04883 320.335009,155.27689 L320.335009,96.5478146 C320.335009,93.789396 322.575097,91.5583222 325.333516,91.5583222 M403.024465,277.976937 L325.288443,277.990459 C322.530025,277.990459 320.289936,275.745863 320.289936,272.987445 L320.289936,203.283289 C320.289936,200.529378 322.530025,198.284782 325.288443,198.284782 L403.024465,198.284782 C440.069305,198.284782 456.619817,208.791112 456.619817,238.133113 C456.619817,267.475115 440.43439,277.976937 403.024465,277.976937" id="Fill-9" fill="#FFFFFF"></path>
    </g>
</svg>